 <svg
                        class="w-[101px] h-[27px]"
                        width="100%"
                        height="100%"
                        viewBox="0 0 98 20"
                        fill="none"
                        xmlns="http://www.w3.org/2000/svg"
                    >
                        <path
                            fill-rule="evenodd"
                            clip-rule="evenodd"
                            d="M9.53299 2.74588C7.48887 2.74588 5.95318 2.79856 4.81662 2.8682C3.49282 2.94931 2.63343 3.93779 2.72067 5.30945C2.79281 6.44364 2.91609 7.97379 3.1231 10.016C3.38136 12.5639 3.61284 14.3136 3.7962 15.4911C3.95394 16.5041 4.69251 17.1762 5.69842 17.2302C6.60869 17.2791 7.85504 17.3169 9.53299 17.3169C11.2458 17.3169 12.5088 17.2776 13.4238 17.2272C14.382 17.1744 15.0869 16.5274 15.2373 15.5449C15.4171 14.371 15.6544 12.6094 15.9439 10.0068C16.1885 7.80704 16.322 6.21162 16.3919 5.06635C16.4671 3.83412 15.7052 2.96451 14.4892 2.88352C13.3319 2.80644 11.7248 2.74588 9.53299 2.74588ZM4.70037 0.967426C5.88198 0.895027 7.457 0.841553 9.53299 0.841553C11.7588 0.841553 13.4088 0.903022 14.6155 0.983397C16.8906 1.13493 18.4291 2.91925 18.291 5.18247C18.2187 6.36623 18.082 7.994 17.8348 10.2175C17.5432 12.8387 17.3027 14.6272 17.1179 15.8334C16.8362 17.6731 15.4182 19.0246 13.5282 19.1286C12.5725 19.1813 11.274 19.2212 9.53299 19.2212C7.8273 19.2212 6.54641 19.1829 5.59647 19.1318C3.67583 19.0287 2.20993 17.6698 1.91633 15.7843C1.72657 14.5657 1.49106 12.7813 1.23024 10.2082C1.02133 8.14715 0.895872 6.59282 0.821943 5.43044C0.670828 3.05451 2.27946 1.11576 4.70037 0.967426Z"
                            fill="#FFFF"></path>
                        <path
                            fill-rule="evenodd"
                            clip-rule="evenodd"
                            d="M9.6065 10.4865C9.57272 10.4427 9.53943 10.3984 9.50664 10.3538C9.22466 9.96981 8.97953 9.55705 8.77648 9.12071C8.51493 8.55868 8.75285 8.04764 9.16922 7.83057C9.64507 7.5825 10.2755 7.83057 10.5017 8.31674C10.6892 8.7198 10.9253 9.09561 11.2026 9.43658C12.0671 10.4996 13.3311 11.2241 14.7656 11.3807C14.9582 11.4018 15.1539 11.4126 15.352 11.4126C15.5956 11.4126 15.8353 11.3963 16.0702 11.3647C16.165 11.352 16.2602 11.3511 16.3536 11.3609C16.8832 11.4164 17.3555 11.8162 17.3555 12.3584C17.3555 12.7597 17.0908 13.1183 16.6968 13.1923C16.5734 13.2155 16.4489 13.2355 16.3234 13.2523C16.0057 13.2949 15.6814 13.3169 15.352 13.3169C15.1455 13.3169 14.941 13.3082 14.7388 13.2913C12.6512 13.1163 10.8151 12.0559 9.6065 10.4865Z"
                            fill="#FFFF"></path>
                        <path
                            d="M30.7233 18V2.72729H36.3163C37.4001 2.72729 38.2975 2.90627 39.0084 3.26423C39.7194 3.61721 40.2513 4.09697 40.6043 4.7035C40.9573 5.30507 41.1338 5.98369 41.1338 6.73937C41.1338 7.37573 41.0169 7.91266 40.7833 8.35016C40.5496 8.78269 40.2364 9.1307 39.8437 9.3942C39.4559 9.65272 39.0283 9.84164 38.561 9.96096V10.1101C39.0681 10.135 39.5628 10.299 40.045 10.6023C40.5322 10.9006 40.9349 11.3257 41.2531 11.8775C41.5713 12.4294 41.7304 13.1005 41.7304 13.891C41.7304 14.6715 41.5464 15.3725 41.1785 15.994C40.8156 16.6105 40.2538 17.1002 39.4932 17.4631C38.7325 17.821 37.7606 18 36.5773 18H30.7233ZM33.0276 16.0238H36.3536C37.4573 16.0238 38.2478 15.81 38.725 15.3825C39.2023 14.9549 39.441 14.4205 39.441 13.7791C39.441 13.2969 39.3191 12.8544 39.0755 12.4517C38.8319 12.049 38.4839 11.7284 38.0315 11.4897C37.5841 11.2511 37.0521 11.1318 36.4356 11.1318H33.0276V16.0238ZM33.0276 9.33454H36.115C36.632 9.33454 37.0968 9.23511 37.5095 9.03624C37.9271 8.83738 38.2577 8.55897 38.5013 8.20102C38.7499 7.83809 38.8742 7.41053 38.8742 6.91835C38.8742 6.28695 38.653 5.75748 38.2105 5.32992C37.768 4.90237 37.0894 4.68859 36.1746 4.68859H33.0276V9.33454Z"
                            fill="#FFFF"></path>
                        <path
                            d="M51.5406 13.2497V6.54548H53.7778V18H51.5853V16.0164H51.466C51.2025 16.6279 50.7799 17.1375 50.1982 17.5451C49.6215 17.9478 48.9031 18.1492 48.043 18.1492C47.3073 18.1492 46.656 17.9876 46.0892 17.6644C45.5274 17.3363 45.085 16.8516 44.7618 16.2103C44.4436 15.5689 44.2845 14.7759 44.2845 13.8313V6.54548H46.5143V13.5629C46.5143 14.3434 46.7305 14.9649 47.1631 15.4272C47.5956 15.8896 48.1574 16.1208 48.8484 16.1208C49.2661 16.1208 49.6812 16.0164 50.0938 15.8076C50.5114 15.5987 50.857 15.283 51.1304 14.8605C51.4088 14.4379 51.5455 13.9009 51.5406 13.2497Z"
                            fill="#FFFF"></path>
                        <path
                            d="M61.5987 18.2312C60.49 18.2312 59.5355 17.9801 58.7351 17.478C57.9396 16.9709 57.3281 16.2724 56.9006 15.3825C56.473 14.4926 56.2592 13.4734 56.2592 12.325C56.2592 11.1616 56.478 10.135 56.9155 9.24505C57.353 8.35016 57.9694 7.65166 58.7649 7.14952C59.5604 6.64739 60.4975 6.39633 61.5763 6.39633C62.4464 6.39633 63.2219 6.55791 63.903 6.88106C64.5841 7.19924 65.1335 7.64668 65.5511 8.22339C65.9737 8.80009 66.2248 9.47374 66.3043 10.2443H64.1342C64.0149 9.70741 63.7415 9.24505 63.3139 8.85727C62.8913 8.46948 62.3246 8.27559 61.6136 8.27559C60.9922 8.27559 60.4478 8.43965 59.9805 8.76778C59.5181 9.09093 59.1577 9.55329 58.8991 10.1549C58.6406 10.7514 58.5114 11.4574 58.5114 12.2728C58.5114 13.108 58.6381 13.8289 58.8917 14.4354C59.1452 15.0419 59.5032 15.5117 59.9655 15.8448C60.4329 16.1779 60.9822 16.3445 61.6136 16.3445C62.0362 16.3445 62.419 16.2674 62.7621 16.1133C63.1101 15.9542 63.4009 15.728 63.6346 15.4347C63.8732 15.1414 64.0398 14.7884 64.1342 14.3757H66.3043C66.2248 15.1165 65.9837 15.7777 65.581 16.3594C65.1783 16.9411 64.6388 17.3985 63.9627 17.7316C63.2915 18.0647 62.5035 18.2312 61.5987 18.2312Z"
                            fill="#FFFF"></path>
                        <path
                            d="M70.7396 14.1147L70.7247 11.3928H71.1125L75.6764 6.54548H78.3461L73.1409 12.0639H72.7904L70.7396 14.1147ZM68.6888 18V2.72729H70.9186V18H68.6888ZM75.9225 18L71.8209 12.5561L73.3571 10.9975L78.6593 18H75.9225Z"
                            fill="#FFFF"></path>
                        <path
                            d="M84.8434 18.2312C83.7148 18.2312 82.7429 17.9901 81.9275 17.5078C81.1172 17.0206 80.4908 16.337 80.0483 15.4571C79.6108 14.5721 79.392 13.5355 79.392 12.3473C79.392 11.174 79.6108 10.1399 80.0483 9.24505C80.4908 8.35016 81.1072 7.65166 81.8977 7.14952C82.6932 6.64739 83.6229 6.39633 84.6868 6.39633C85.3331 6.39633 85.9595 6.50322 86.566 6.717C87.1726 6.93078 87.717 7.26636 88.1992 7.72374C88.6815 8.18113 89.0618 8.77524 89.3402 9.50606C89.6186 10.2319 89.7578 11.1144 89.7578 12.1534V12.9439H80.6523V11.2735H87.5728C87.5728 10.6868 87.4535 10.1673 87.2148 9.71487C86.9762 9.25748 86.6406 8.89704 86.2081 8.63354C85.7805 8.37005 85.2784 8.2383 84.7017 8.2383C84.0753 8.2383 83.5284 8.39242 83.0611 8.70066C82.5987 9.00393 82.2408 9.40166 81.9872 9.89384C81.7386 10.3811 81.6143 10.9105 81.6143 11.4823V12.7873C81.6143 13.5529 81.7486 14.2042 82.017 14.7411C82.2905 15.2781 82.6708 15.6882 83.158 15.9716C83.6452 16.25 84.2145 16.3892 84.8658 16.3892C85.2883 16.3892 85.6736 16.3296 86.0216 16.2103C86.3697 16.086 86.6704 15.902 86.924 15.6584C87.1775 15.4148 87.3714 15.114 87.5057 14.7561L89.6161 15.1364C89.4471 15.7578 89.1438 16.3022 88.7063 16.7696C88.2738 17.2319 87.7294 17.5924 87.0731 17.8509C86.4219 18.1044 85.6786 18.2312 84.8434 18.2312Z"
                            fill="#FFFF"></path>
                        <path
                            d="M97.5787 6.54548V8.33525H91.322V6.54548H97.5787ZM92.9999 3.80116H95.2297V14.6367C95.2297 15.0693 95.2943 15.3949 95.4236 15.6137C95.5528 15.8274 95.7194 15.9741 95.9232 16.0536C96.132 16.1282 96.3582 16.1655 96.6018 16.1655C96.7808 16.1655 96.9374 16.1531 97.0716 16.1282C97.2059 16.1034 97.3103 16.0835 97.3848 16.0686L97.7875 17.9105C97.6583 17.9602 97.4743 18.01 97.2357 18.0597C96.9971 18.1144 96.6988 18.1442 96.3408 18.1492C95.7542 18.1591 95.2073 18.0547 94.7002 17.836C94.1931 17.6172 93.7829 17.2791 93.4697 16.8218C93.1565 16.3644 92.9999 15.7902 92.9999 15.0991V3.80116Z"
                            fill="#FFFF"></path>
                    </svg>
        