<svg id="ebfa06e8-a95d-4633-af47-c0bfe143253e" data-name="Capa 1" xmlns="http://www.w3.org/2000/svg" viewBox="0 0 30.98 12.88"><defs><style>.eec81742-bedd-4bfd-95b3-28b1525ad9a2{fill:#0f9c58;}.e900a709-85a8-4005-b3b9-db42ddf3d504{fill:#737373;}.bd8d20d7-abb3-4d2f-83e3-dcda01cd6ff6{fill:#109d58;}.b93f3536-0113-4829-8aa6-b855e7615dee{fill:#0f9d58;}.a82ad0a8-9739-45bb-9c53-f2c70a5c3266{fill:#109d59;}.ee1b6283-99c5-4f2c-909b-4f116d497094{fill:#747474;}.aead2dce-a525-41f4-9580-e6a99ba3909f.ad3454a0-6c66-4f7e-9cb6-7b1a2b2273bc</style></defs><path class="eec81742-bedd-4bfd-95b3-28b1525ad9a2" d="M2.78,7.52H4.41c.41,0,.6.19.6.59v3a.63.63,0,0,1-.28.56l-1.82,1.2a.18.18,0,0,1-.25,0L.84,11.62a.55.55,0,0,1-.27-.5c0-1,0-2,0-3.07a.48.48,0,0,1,.54-.53Z"/><path class="e900a709-85a8-4005-b3b9-db42ddf3d504" d="M27.51,3.78c.22-.66.45-1.3.64-2,.08-.26.22-.27.44-.28a.35.35,0,0,1,.41.29c.2.67.43,1.33.66,2.05.22-.73.41-1.39.61-2.06a.51.51,0,0,1,.66-.26c.08,0,0,.1,0,.15-.31,1-.63,2-.94,2.94a.18.18,0,0,1-.1.11.51.51,0,0,1-.7-.34c-.21-.66-.42-1.31-.65-2-.23.69-.44,1.34-.65,2a.49.49,0,0,1-.68.36c-.08,0-.1-.08-.12-.15-.31-1-.62-1.91-.94-2.86-.05-.16,0-.21.17-.21.54,0,.43-.05.57.41l.54,1.82Z"/><path class="e900a709-85a8-4005-b3b9-db42ddf3d504" d="M1.54,0A1.47,1.47,0,0,1,3,.75c.1.16.08.26-.11.31a.51.51,0,0,0-.17.07c-.13.07-.21.07-.3-.09A.91.91,0,0,0,1,.83a.52.52,0,0,0,0,.84,3,3,0,0,0,.83.38,2.84,2.84,0,0,1,.62.27,1.29,1.29,0,0,1,.7,1.44A1.38,1.38,0,0,1,2,4.82,1.77,1.77,0,0,1,0,3.84C0,3.65,0,3.56.19,3.47s.37-.09.5.18a1,1,0,0,0,1.51.43.7.7,0,0,0,0-1.16,2.41,2.41,0,0,0-.73-.33A4.41,4.41,0,0,1,.78,2.3,1.13,1.13,0,0,1,.14,1.11a1.24,1.24,0,0,1,.92-1A1,1,0,0,1,1.54,0Z"/><path class="eec81742-bedd-4bfd-95b3-28b1525ad9a2" d="M25.32,8.82c0-.59,0-1.12,0-1.65,0-.28.18-.2.32-.21s.28,0,.28.21q0,2.07,0,4.14c0,.18,0,.28-.24.26s-.39,0-.34-.26a.41.41,0,0,0,0-.11h0a1.32,1.32,0,0,1-1.49.39,1.48,1.48,0,0,1-1-1.27,1.7,1.7,0,0,1,.5-1.61,1.39,1.39,0,0,1,2,0Z"/><path class="e900a709-85a8-4005-b3b9-db42ddf3d504" d="M19.56,3.75c.42-1.16.82-2.31,1.23-3.46.06-.15.61-.28.72-.17s0,.14,0,.2L20.31,3.56c-.12.34-.26.68-.38,1a.22.22,0,0,1-.24.18c-.47,0-.47,0-.63-.44-.46-1.32-.93-2.65-1.41-4-.07-.2-.06-.29.18-.26H18c.22,0,.31.07.37.27.35,1.06.71,2.12,1.08,3.19C19.48,3.62,19.48,3.7,19.56,3.75Z"/><path class="e900a709-85a8-4005-b3b9-db42ddf3d504" d="M24.87,3.3c-.34,0-.68,0-1,0s-.22.06-.17.23a.91.91,0,0,0,.72.72.85.85,0,0,0,1-.39.15.15,0,0,1,.23-.07.88.88,0,0,0,.22.1c.21.05.18.16.09.3a1.63,1.63,0,0,1-2.69,0,1.76,1.76,0,0,1,.88-2.61,1.54,1.54,0,0,1,2,1.61c0,.15-.08.17-.2.17Z"/><path class="e900a709-85a8-4005-b3b9-db42ddf3d504" d="M9.5,3.3H8.45c-.17,0-.19.08-.16.21A1,1,0,0,0,9,4.25a.88.88,0,0,0,1-.38c.14-.23.26-.07.38,0,.31.12.31.15.11.41a1.62,1.62,0,0,1-2.85-.73,1.74,1.74,0,0,1,.62-1.77A1.62,1.62,0,0,1,10,1.64a1.6,1.6,0,0,1,.78,1.5c0,.16-.1.16-.21.16Z"/><path class="e900a709-85a8-4005-b3b9-db42ddf3d504" d="M12.87,3.3h-1c-.14,0-.19,0-.16.18a1,1,0,0,0,.74.77.9.9,0,0,0,1-.4c.08-.14.16-.1.25-.06.42.17.45.25.14.58a1.56,1.56,0,0,1-1.74.39,1.5,1.5,0,0,1-1-1.3,1.74,1.74,0,0,1,.64-1.7,1.62,1.62,0,0,1,1.71-.12,1.64,1.64,0,0,1,.78,1.5c0,.16-.11.16-.22.16Z"/><path class="eec81742-bedd-4bfd-95b3-28b1525ad9a2" d="M21.17,10.1H20.09c-.15,0-.18,0-.15.18a1,1,0,0,0,.76.82.9.9,0,0,0,1-.39c.12-.18.21-.06.31,0,.33.13.33.15.11.43a1.58,1.58,0,0,1-1.72.48,1.61,1.61,0,0,1-1.09-1.38,1.68,1.68,0,0,1,1.1-1.85,1.54,1.54,0,0,1,2,1.55c0,.15-.06.18-.19.18Z"/><path class="bd8d20d7-abb3-4d2f-83e3-dcda01cd6ff6" d="M13.37,11.14a1.35,1.35,0,0,1-1.12.53,1.05,1.05,0,0,1-1.06-.91,16.61,16.61,0,0,1,0-2.23c0-.09,0-.12.13-.12h.23c.18,0,.25,0,.24.23,0,.46,0,.92,0,1.39v.23c0,.58.25.85.73.87a.84.84,0,0,0,.86-.85c0-.54,0-1.08,0-1.62,0-.29.15-.24.32-.26s.3,0,.3.27c0,.87,0,1.74,0,2.62,0,.18,0,.31-.24.28s-.4,0-.33-.26C13.38,11.27,13.37,11.24,13.37,11.14Z"/><path class="b93f3536-0113-4829-8aa6-b855e7615dee" d="M15.68,11.67a1.39,1.39,0,0,1-1.24-.7c-.09-.13-.11-.21.07-.28s.36-.14.52.12a.85.85,0,0,0,1,.28.42.42,0,0,0,.31-.39.39.39,0,0,0-.3-.38l-.71-.18A2.09,2.09,0,0,1,15,10a.81.81,0,0,1-.55-.78.84.84,0,0,1,.6-.78,1.46,1.46,0,0,1,1.74.36c0,.07.18.15.07.26s-.44.16-.52.06a.9.9,0,0,0-1-.21.36.36,0,0,0-.23.33.32.32,0,0,0,.25.3c.29.09.59.15.89.23A.93.93,0,0,1,17,10.86a1.07,1.07,0,0,1-.93.78C15.91,11.66,15.8,11.66,15.68,11.67Z"/><path class="e900a709-85a8-4005-b3b9-db42ddf3d504" d="M3.85,3.15c0-.26,0-.51,0-.76s0-.25-.23-.24a.34.34,0,0,1-.33-.52c0-.12.16-.09.25-.08.26,0,.35-.07.31-.32s0-.25,0-.37C3.8.58,4,.58,4.17.58s.38,0,.32.28V.91c0,.2-.08.44,0,.59s.36,0,.55,0,.18.2.19.34,0,.3-.19.27H5c-.53,0-.53,0-.53.53v1c0,.37.13.49.5.47a.51.51,0,0,1,.38.48.16.16,0,0,1-.07.07A1,1,0,0,1,3.87,4a8.26,8.26,0,0,1,0-.86Z"/><path class="e900a709-85a8-4005-b3b9-db42ddf3d504" d="M14.84,3.13c0-.24,0-.49,0-.73s0-.27-.25-.25-.26.07-.3-.06a.94.94,0,0,1,0-.47c0-.13.18-.08.27-.07s.3-.06.28-.28,0-.26,0-.39.07-.31.31-.3.33,0,.34.34c0,.19-.06.43,0,.56s.35.06.54.06.19.2.21.35,0,.26-.21.27c-.57,0-.57,0-.57.59,0,.34,0,.68,0,1s.14.44.45.44a.47.47,0,0,1,.43.45c0,.08-.08.1-.13.11-.68.15-1.42-.08-1.4-1C14.85,3.55,14.84,3.34,14.84,3.13Z"/><path class="bd8d20d7-abb3-4d2f-83e3-dcda01cd6ff6" d="M7,9.89c0-.23,0-.45,0-.68S7,8.94,6.8,9a.32.32,0,0,1-.3-.49c0-.11.17-.07.25-.06.23,0,.33,0,.29-.28a2.8,2.8,0,0,1,0-.29c0-.4.09-.47.49-.39.12,0,.11.09.11.17s0,.42,0,.63,0,.17.17.16h.26c.33,0,.44.14.34.46C8.38,9,8.3,9,8.23,9s-.45-.09-.55,0,0,.37,0,.56v1c0,.37.17.5.53.48.15,0,.34.19.34.39s-.16.13-.25.14a1,1,0,0,1-1.22-1Z"/><path class="b93f3536-0113-4829-8aa6-b855e7615dee" d="M17.78,9.93c0-.24,0-.47,0-.71s0-.29-.25-.26-.25.06-.29-.05a.82.82,0,0,1,0-.44c0-.12.19-.07.28-.06s.29-.05.26-.26,0-.24,0-.36c0-.34,0-.33.33-.34s.31,0,.27.25a.11.11,0,0,0,0,.08c0,.2-.08.45,0,.58s.37.05.55,0,.19.16.19.29S19.2,9,19,9s-.44-.1-.55,0,0,.37,0,.56q0,.51,0,1c0,.37.16.52.52.47s.28.26.33.4-.16.13-.26.14a.94.94,0,0,1-1.19-1Z"/><path class="e900a709-85a8-4005-b3b9-db42ddf3d504" d="M6.29,2a1.19,1.19,0,0,1,1.09-.48c.29,0,.3.07.2.33s-.13.37-.45.31-.75.29-.8.7a11.67,11.67,0,0,0,0,1.67c0,.29-.13.28-.33.28s-.33,0-.33-.29c0-.88,0-1.76,0-2.64,0-.22,0-.32.28-.3s.41,0,.35.29A.93.93,0,0,0,6.29,2Z"/><path class="a82ad0a8-9739-45bb-9c53-f2c70a5c3266" d="M9.45,8.91a1.15,1.15,0,0,1,1.16-.56c.18,0,.24.08.16.27s-.15.35-.45.32a.79.79,0,0,0-.83.82c0,.53,0,1.05,0,1.57,0,.26-.12.24-.29.23s-.33.07-.32-.22c0-.9,0-1.8,0-2.69,0-.24.1-.25.28-.25s.34,0,.29.25A2.14,2.14,0,0,0,9.45,8.91Z"/><path class="ee1b6283-99c5-4f2c-909b-4f116d497094" d="M21.92,3.15c0-.45,0-.91,0-1.36,0-.18.05-.26.24-.25h.26c.13,0,.17.05.17.17V4.58c0,.15-.06.2-.21.19h-.23c-.18,0-.23-.06-.23-.23C21.92,4.08,21.92,3.61,21.92,3.15Z"/><path class="e900a709-85a8-4005-b3b9-db42ddf3d504" d="M22.26.94A.46.46,0,0,1,21.8.49a.45.45,0,0,1,.43-.44.44.44,0,0,1,.46.43A.45.45,0,0,1,22.26.94Z"/><path class="aead2dce-a525-41f4-9580-e6a99ba3909f" d="M1.37,9.61l.19.16.61.61c.1.11.16.1.26,0L4,8.83c.13-.12.21-.19.37,0s.14.22,0,.36L2.45,11c-.11.11-.18.15-.3,0l-.93-.93c-.05,0-.17-.09-.09-.2A3.65,3.65,0,0,1,1.37,9.61Z"/><path class="ad3454a0-6c66-4f7e-9cb6-7b1a2b2273bc" d="M25.33,10a1,1,0,0,1-1,1.13.92.92,0,0,1-.63-.28,1.31,1.31,0,0,1-.22-1.4,1,1,0,0,1,1-.58A1,1,0,0,1,25.33,10Z"/><path class="ad3454a0-6c66-4f7e-9cb6-7b1a2b2273bc" d="M23.7,2.74a.88.88,0,0,1,.77-.69.84.84,0,0,1,.91.47c.08.16.07.23-.14.22Z"/><path class="ad3454a0-6c66-4f7e-9cb6-7b1a2b2273bc" d="M9.21,2.74H8.47c-.11,0-.16,0-.11-.15a.88.88,0,0,1,.8-.54.85.85,0,0,1,.87.5c.07.17,0,.2-.14.19Z"/><path class="ad3454a0-6c66-4f7e-9cb6-7b1a2b2273bc" d="M12.55,2.74h-.71c-.11,0-.16,0-.1-.15a.92.92,0,0,1,1.64-.09c.08.16.08.26-.15.24S12.78,2.74,12.55,2.74Z"/><path class="aead2dce-a525-41f4-9580-e6a99ba3909f" d="M20,9.61a.87.87,0,0,1,.75-.75.88.88,0,0,1,1,.52c.06.14.09.24-.14.23Z"/></svg>